<svg id="visual" viewBox="0 0 900 600" width="900" height="600" xmlns="http://www.w3.org/2000/svg" xmlns:xlink="http://www.w3.org/1999/xlink" version="1.1"><rect x="0" y="0" width="900" height="600" fill="#001220"></rect><defs><linearGradient id="grad1_0" x1="33.3%" y1="0%" x2="100%" y2="100%"><stop offset="20%" stop-color="#001220" stop-opacity="1"></stop><stop offset="80%" stop-color="#001220" stop-opacity="1"></stop></linearGradient></defs><defs><linearGradient id="grad2_0" x1="0%" y1="0%" x2="66.7%" y2="100%"><stop offset="20%" stop-color="#001220" stop-opacity="1"></stop><stop offset="80%" stop-color="#001220" stop-opacity="1"></stop></linearGradient></defs><g transform="translate(900, 0)"><path d="M0 189.3C-27.1 188.8 -54.2 188.4 -72.4 174.9C-90.7 161.4 -100.2 134.9 -116.7 116.7C-133.2 98.4 -156.7 88.5 -170 70.4C-183.3 52.3 -186.3 26.2 -189.3 0L0 0Z" fill="#FBAE3C"></path></g><g transform="translate(0, 600)"><path d="M0 -189.3C27.9 -189.6 55.7 -189.8 72.4 -174.9C89.2 -159.9 94.8 -129.8 111.7 -111.7C128.7 -93.7 157 -87.8 171.8 -71.2C186.7 -54.6 188 -27.3 189.3 0L0 0Z" fill="#FBAE3C"></path></g></svg>